<svg width="123" height="122" viewBox="0 0 123 122" fill="none" xmlns="http://www.w3.org/2000/svg">
<g clip-path="url(#clip0_1_2)">
<rect width="122.88" height="121.74" rx="16" fill="#911D91"/>
<path d="M32.18 105.73C32.88 104.62 34.34 104.29 35.45 104.99C36.56 105.69 36.89 107.15 36.19 108.26L31.38 115.94C30.68 117.05 29.22 117.38 28.11 116.68C27 115.98 26.67 114.52 27.37 113.41L32.18 105.73ZM6.57 75.32C6.9 76.59 6.15 77.89 4.88 78.22C3.61 78.55 2.31 77.8 1.98 76.53C1.59 75.03 1.25 73.52 0.96 71.99C0.68 70.47 0.46 68.96 0.3 67.45C0.2 66.47 0.12 65.47 0.08 64.46C0.02 63.37 0 62.36 0 61.44C0 44.47 6.88 29.11 18 18C29.11 6.88 44.47 0 61.44 0C78.41 0 93.78 6.83 104.91 17.91C116.02 28.97 122.88 44.27 122.88 61.21C122.88 62.52 121.81 63.59 120.5 63.59C119.19 63.59 118.12 62.52 118.12 61.21C118.12 45.57 111.79 31.47 101.56 21.28C91.3 11.06 77.12 4.76 61.44 4.76C45.79 4.76 31.62 11.1 21.36 21.36C11.11 31.62 4.76 45.79 4.76 61.44C4.76 62.48 4.78 63.41 4.82 64.24C4.86 65.15 4.93 66.06 5.02 66.97C5.17 68.37 5.37 69.76 5.63 71.14C5.89 72.51 6.2 73.9 6.57 75.32ZM12.97 96.87C11.98 97.73 10.48 97.62 9.62 96.63C8.76 95.64 8.87 94.14 9.86 93.28C10.46 92.76 10.99 92.14 11.44 91.42C11.91 90.68 12.3 89.81 12.61 88.82C14.2 83.76 13.24 78.48 12.27 73.13C11.61 69.49 10.94 65.82 10.97 61.99C11.09 42.39 23.35 26.41 39.39 18.22C46.12 14.78 53.54 12.72 61.02 12.33C68.53 11.94 76.1 13.26 83.09 16.58C98.7 24 111.38 41.37 114.02 72.13C114.13 73.44 113.15 74.59 111.84 74.7C110.53 74.81 109.38 73.83 109.27 72.52C106.8 43.73 95.25 27.63 81.06 20.88C74.8 17.9 68.01 16.73 61.26 17.07C54.47 17.42 47.71 19.31 41.55 22.45C26.96 29.89 15.82 44.34 15.71 62C15.69 65.4 16.32 68.86 16.94 72.29C18.02 78.23 19.08 84.09 17.15 90.24C16.72 91.62 16.15 92.86 15.46 93.96C14.76 95.07 13.92 96.04 12.97 96.87ZM109.22 82.01C109.22 80.69 110.29 79.63 111.6 79.63C112.91 79.63 113.98 80.7 113.98 82.01V91.99C113.98 93.31 112.91 94.37 111.6 94.37C110.29 94.37 109.22 93.3 109.22 91.99V82.01ZM20.01 106.56C19.03 107.43 17.53 107.34 16.66 106.36C15.79 105.38 15.88 103.88 16.86 103.01C19.81 100.41 21.96 97.05 23.2 92.84C24.48 88.5 24.8 83.23 24.05 76.92C22.67 70.14 22.42 63.88 23.23 58.23C24.07 52.32 26.07 47.08 29.12 42.6C29.86 41.52 31.34 41.24 32.42 41.98C33.5 42.72 33.78 44.2 33.04 45.28C30.4 49.15 28.67 53.72 27.93 58.9C27.2 64.03 27.43 69.74 28.7 75.97C28.73 76.09 28.76 76.21 28.77 76.33C29.61 83.3 29.22 89.21 27.76 94.18C26.26 99.28 23.63 103.36 20.01 106.56ZM44.18 34.97C43.04 35.63 41.59 35.24 40.93 34.1C40.27 32.96 40.66 31.51 41.8 30.85C44.46 29.31 47.3 28.09 50.23 27.2C58.27 24.76 67 24.83 74.94 27.61C82.92 30.41 90.09 35.93 94.97 44.38C96.6 47.19 97.97 50.34 99.03 53.83C100.54 58.81 101.57 64.37 102.1 70.48C102.62 76.49 102.65 83.09 102.19 90.27C102.19 90.34 102.18 90.4 102.17 90.47L100.51 106.85C100.38 108.15 99.22 109.11 97.91 108.98C96.61 108.85 95.65 107.69 95.78 106.38L97.44 89.98V89.97C97.88 83.06 97.85 76.68 97.35 70.87C96.85 65.05 95.89 59.82 94.49 55.21C93.55 52.1 92.32 49.29 90.86 46.76C86.59 39.36 80.33 34.53 73.38 32.09C66.39 29.64 58.7 29.58 51.61 31.73C49.04 32.53 46.55 33.6 44.18 34.97ZM38.95 98.15C38.72 99.44 37.49 100.31 36.2 100.08C34.91 99.85 34.04 98.62 34.27 97.33C34.82 94.25 35.13 90.8 35.24 87.04C35.35 83.23 35.26 79.06 35 74.6C34.95 73.64 34.86 72.45 34.78 71.29C34.24 63.7 33.81 57.58 38.25 49.69C39.23 47.95 40.4 46.33 41.8 44.85C43.2 43.37 44.81 42.03 46.64 40.86C46.76 40.78 46.88 40.72 47.01 40.67C49.72 39.37 52.41 38.36 55.1 37.7C57.87 37.02 60.62 36.72 63.33 36.87C64.64 36.94 65.65 38.05 65.58 39.36C65.51 40.67 64.4 41.68 63.09 41.61C60.84 41.49 58.55 41.74 56.22 42.31C53.9 42.88 51.52 43.77 49.1 44.93C47.63 45.88 46.35 46.94 45.26 48.1C44.14 49.29 43.19 50.59 42.4 52.01C38.66 58.67 39.04 64.15 39.52 70.95C39.59 71.95 39.66 72.99 39.74 74.33C40 78.87 40.09 83.17 39.98 87.16C39.85 91.22 39.53 94.9 38.95 98.15ZM72.44 44.51C71.32 43.83 70.97 42.36 71.65 41.25C72.33 40.13 73.79 39.78 74.91 40.46C75.64 40.91 76.35 41.39 77.04 41.91C77.72 42.42 78.39 42.98 79.06 43.59C88.12 51.82 91.19 65.05 91.39 78.89C91.58 92.37 89.05 106.43 86.73 116.8C86.45 118.08 85.18 118.89 83.9 118.6C82.62 118.32 81.81 117.05 82.1 115.77C84.36 105.65 86.84 91.96 86.65 78.94C86.47 66.28 83.77 54.29 75.86 47.1C75.31 46.6 74.74 46.13 74.17 45.7C73.6 45.25 73.02 44.86 72.44 44.51ZM43.15 119.69C42.39 120.76 40.91 121.02 39.84 120.26C38.77 119.5 38.51 118.02 39.27 116.95C40.95 114.58 42.37 111.98 43.53 109.16C44.69 106.32 45.59 103.23 46.21 99.89C47.37 93.66 46.82 85.72 46.29 78.22C46.11 75.69 45.94 73.22 45.83 70.68C45.67 66.97 45.6 63.33 46.29 60.02C47.04 56.41 48.66 53.28 51.91 51C52.64 50.49 53.43 50.03 54.28 49.64C55.13 49.25 56.05 48.9 57.04 48.62C57.78 48.41 58.51 48.24 59.22 48.12C64.09 47.29 67.95 48.55 70.93 51.15C73.76 53.62 75.68 57.26 76.86 61.39C77.21 62.63 77.5 63.92 77.73 65.24C77.85 65.96 77.96 66.69 78.04 67.42C78.12 68.14 78.19 68.88 78.24 69.64C78.74 77.18 78.41 86.59 77.39 95.8C76.41 104.63 74.79 113.33 72.64 120.1C72.24 121.35 70.91 122.04 69.66 121.65C68.41 121.25 67.72 119.92 68.11 118.67C70.15 112.24 71.7 103.86 72.65 95.29C73.64 86.34 73.96 77.23 73.48 69.95C73.44 69.32 73.38 68.66 73.3 67.98C73.23 67.34 73.13 66.7 73.02 66.07C72.82 64.93 72.57 63.81 72.27 62.72C71.33 59.41 69.87 56.57 67.79 54.76C65.87 53.09 63.32 52.29 60.02 52.85C59.49 52.94 58.93 53.07 58.34 53.24C57.57 53.46 56.88 53.71 56.27 54C55.65 54.29 55.1 54.6 54.63 54.93C52.54 56.39 51.47 58.52 50.95 61.02C50.37 63.81 50.44 67.12 50.58 70.51C50.68 72.76 50.86 75.32 51.04 77.94C51.58 85.72 52.16 93.95 50.88 100.79C50.2 104.44 49.21 107.83 47.92 110.99C46.64 114.11 45.04 117.02 43.15 119.69ZM59.44 62.15C59.2 60.86 60.06 59.62 61.35 59.39C62.64 59.15 63.88 60.01 64.11 61.3C65.32 67.82 65.9 74.41 65.92 81.03C65.94 87.62 65.4 94.24 64.38 100.87C64.18 102.16 62.97 103.05 61.67 102.85C60.38 102.65 59.49 101.44 59.69 100.14C60.68 93.76 61.2 87.38 61.18 81.03C61.16 74.7 60.6 68.4 59.44 62.15ZM56.72 108.31C57 107.03 58.27 106.22 59.55 106.51C60.83 106.79 61.64 108.06 61.35 109.34L59.27 118.71C58.99 119.99 57.72 120.8 56.44 120.51C55.16 120.23 54.35 118.96 54.64 117.68L56.72 108.31Z" fill="white"/>
</g>
<defs>
<clipPath id="clip0_1_2">
<rect width="122.88" height="121.74" rx="16" fill="white"/>
</clipPath>
</defs>
</svg>
